<!DOCTYPE svg PUBLIC "-//W3C//DTD SVG 1.1//EN" "http://www.w3.org/Graphics/SVG/1.1/DTD/svg11.dtd">
<!-- Uploaded to: SVG Repo, www.svgrepo.com, Transformed by: SVG Repo Mixer Tools -->
<svg width="256px" height="256px" viewBox="-4.8 -4.8 57.60 57.60" id="Layer_2" data-name="Layer 2" xmlns="http://www.w3.org/2000/svg" fill="#000000" stroke="#000000" stroke-width="2.208" transform="matrix(1, 0, 0, 1, 0, 0)rotate(0)">
<g id="SVGRepo_bgCarrier" stroke-width="0">
<path transform="translate(-4.8, -4.8), scale(1.7999999999999998)" d="M16,28.24160310306719C18.75060251323133,28.719729815563596,21.594468728662406,29.771838791966236,24.190479259096836,28.744634496380073C26.954768986488197,27.650844525602903,29.06789699308899,25.235282905281053,30.361834769799895,22.55883017318684C31.670977388111996,19.850926902606904,32.35307126097448,16.64303671587215,31.424028588464033,13.782359483020947C30.53726693059311,11.051872541251097,27.448587083276802,9.878235179891838,25.545561964437,7.728723473919894C23.670212297277143,5.61047184263912,22.983739059027187,2.233677531407644,20.330436899773623,1.2518863116258458C17.66435503377318,0.26536626598012747,14.757056355971265,1.7168976927779755,12.11175822626106,2.757864609461169C9.658784452696246,3.723148830961084,7.392762707597494,5.053924135576124,5.6477761778833955,7.02974699534616C3.891260296243355,9.018624372561293,2.7659496700189665,11.425631985835897,2.1725285666855587,14.01190974705382C1.5395413758633287,16.77062642491278,0.6835645723935175,19.902277072573227,2.136889457542516,22.331070450085782C3.581719770104276,24.745667716422155,6.867151801180758,25.079748835536428,9.45557593449206,26.18332261956178C11.60267199311482,27.09873632305288,13.700387555514045,27.8418702689667,16,28.24160310306719" fill="#7ed0ec" strokewidth="0"/>
</g>
<g id="SVGRepo_tracerCarrier" stroke-linecap="round" stroke-linejoin="round"/>
<g id="SVGRepo_iconCarrier">
<defs>
<style>.cls-1{fill:none;stroke:#000000;stroke-linecap:round;stroke-linejoin:round;}</style>
</defs>
<path class="cls-1" d="M4.5,35.48,14.78,24,4.5,12.51h7.09L21.88,24,11.59,35.48Zm35.51,0H25.13a3.2,3.2,0,0,1,0-6.38H40a3.2,3.2,0,1,1,.57,6.38A5.42,5.42,0,0,1,40,35.48Z"/>
</g>
</svg>